<?xml version="1.0" encoding="UTF-8" standalone="no"?>
<!-- Generator: Adobe Illustrator 22.1.0, SVG Export Plug-In . SVG Version: 6.00 Build 0)  -->

<svg
   xmlns:dc="http://purl.org/dc/elements/1.1/"
   xmlns:cc="http://creativecommons.org/ns#"
   xmlns:rdf="http://www.w3.org/1999/02/22-rdf-syntax-ns#"
   xmlns:svg="http://www.w3.org/2000/svg"
   xmlns="http://www.w3.org/2000/svg"
   xmlns:sodipodi="http://sodipodi.sourceforge.net/DTD/sodipodi-0.dtd"
   xmlns:inkscape="http://www.inkscape.org/namespaces/inkscape"
   version="1.1"
   id="Layer_1"
   x="0px"
   y="0px"
   viewBox="0 0 397.14445 176.52987"
   xml:space="preserve"
   sodipodi:docname="homestead-automation-logo.svg"
   width="397.14444"
   height="176.52988"
   inkscape:version="0.92.3 (2405546, 2018-03-11)"><metadata
   id="metadata341"><rdf:RDF><cc:Work
       rdf:about=""><dc:format>image/svg+xml</dc:format><dc:type
         rdf:resource="http://purl.org/dc/dcmitype/StillImage" /><dc:title></dc:title></cc:Work></rdf:RDF></metadata><defs
   id="defs339" /><sodipodi:namedview
   pagecolor="#ffffff"
   bordercolor="#666666"
   borderopacity="1"
   objecttolerance="10"
   gridtolerance="10"
   guidetolerance="10"
   inkscape:pageopacity="0"
   inkscape:pageshadow="2"
   inkscape:window-width="1276"
   inkscape:window-height="1021"
   id="namedview337"
   showgrid="false"
   fit-margin-top="0"
   fit-margin-left="0"
   fit-margin-right="0"
   fit-margin-bottom="0"
   inkscape:zoom="0.71690449"
   inkscape:cx="91.172108"
   inkscape:cy="212.31321"
   inkscape:window-x="1280"
   inkscape:window-y="0"
   inkscape:window-maximized="0"
   inkscape:current-layer="Layer_1" />
<style
   type="text/css"
   id="style2">
	.st0{fill:#58CADD;}
	.st1{fill:#9C9B97;}
	.st2{fill:#70706D;}
	.st3{fill:#FFFFFF;}
	.st4{opacity:0.5;fill:#70706D;}
	.st5{fill:#B5B5B4;}
	.st6{fill:#A5A5A5;}
	.st7{fill:#E5E5E5;}
	.st8{opacity:0.5;}
	.st9{fill:#0F090D;}
	.st10{fill:#FCF4FB;}
	.st11{fill:#FF9D0B;}
	.st12{fill:#546F7A;}
	.st13{fill:#374C54;}
	.st14{fill:#E4E3E5;}
</style>
<g
   id="g334"
   transform="translate(-392.05556,-334.87012)">
	<g
   id="g44">
		<path
   d="m 512.4,418.5 v 20 h -7.1 v -47.2 h 7.1 v 20.1 h 8.5 v -20.1 h 7.1 v 47.2 h -7.1 v -20 z"
   id="path4"
   inkscape:connector-curvature="0" />
		<path
   d="m 545.6,390.7 c 3.1,0 5.8,1.1 8,3.3 2.2,2.2 3.3,4.9 3.3,8 v 25.7 c 0,3.1 -1.1,5.8 -3.3,8 -2.2,2.2 -4.9,3.3 -8,3.3 -3.1,0 -5.8,-1.1 -8,-3.3 -2.2,-2.2 -3.3,-4.9 -3.3,-8 V 402 c 0,-3.1 1.1,-5.8 3.3,-8 2.2,-2.2 4.9,-3.3 8,-3.3 z m 3.9,11.2 c 0,-1.1 -0.4,-2.1 -1.2,-2.9 -0.8,-0.8 -1.7,-1.2 -2.9,-1.2 -1.1,0 -2.1,0.4 -2.9,1.2 -0.8,0.8 -1.2,1.7 -1.2,2.9 v 25.8 c 0,1.1 0.4,2.1 1.2,2.9 0.8,0.8 1.8,1.2 2.9,1.2 1.1,0 2.1,-0.4 2.9,-1.2 0.8,-0.8 1.2,-1.7 1.2,-2.9 z"
   id="path6"
   inkscape:connector-curvature="0" />
		<path
   d="m 570.2,438.5 h -7.1 v -47.2 h 10.2 l 6.6,33.8 6.4,-33.8 h 9.8 v 47.2 H 589 v -29.7 l -6.1,29.7 h -5.7 l -6.9,-29.6 v 29.6 z"
   id="path8"
   inkscape:connector-curvature="0" />
		<path
   d="m 602.5,438.5 v -47.2 h 20.3 v 7.1 h -13.1 v 12.9 h 9.6 v 7.1 h -9.6 v 12.9 h 13.1 v 7.1 h -20.3 z"
   id="path10"
   inkscape:connector-curvature="0" />
		<path
   d="m 651.2,426.8 c 0.1,3.3 -0.8,6.1 -2.6,8.4 -1.2,1.6 -2.8,2.7 -4.9,3.3 -1.1,0.4 -2.5,0.5 -4,0.5 -2.8,0 -5.1,-0.7 -6.9,-2.1 -1.5,-1.1 -2.7,-2.7 -3.6,-4.6 -0.9,-1.9 -1.4,-4.2 -1.6,-6.7 l 6.8,-0.5 c 0.3,2.7 1,4.7 2.2,6 0.8,0.9 1.8,1.4 2.9,1.3 1.6,-0.1 2.8,-0.8 3.7,-2.3 0.5,-0.7 0.7,-1.8 0.7,-3.1 0,-2 -0.9,-3.9 -2.7,-5.9 -1.4,-1.3 -3.5,-3.3 -6.3,-6 -2.4,-2.3 -4,-4.3 -5,-6.1 -1.1,-2 -1.6,-4.2 -1.6,-6.6 0,-4.3 1.4,-7.5 4.3,-9.8 1.8,-1.3 4,-2 6.6,-2 2.5,0 4.7,0.6 6.5,1.7 1.4,0.9 2.5,2.1 3.4,3.7 0.9,1.6 1.4,3.4 1.6,5.4 l -6.8,1.2 c -0.2,-1.9 -0.7,-3.4 -1.7,-4.5 -0.7,-0.8 -1.6,-1.2 -2.8,-1.2 -1.3,0 -2.3,0.6 -3,1.7 -0.6,0.9 -0.8,2.1 -0.8,3.5 0,2.2 0.9,4.4 2.8,6.6 0.7,0.8 1.8,1.8 3.2,3 1.7,1.4 2.8,2.3 3.3,2.9 1.7,1.8 3.1,3.5 4.1,5.2 0.4,0.8 0.8,1.5 1.1,2.2 0.7,1.9 1,3.4 1.1,4.8 z"
   id="path12"
   inkscape:connector-curvature="0" />
		<path
   d="M 663.6,398.4 H 656 v -7.1 h 22.2 v 7.1 h -7.5 v 40.1 h -7.1 z"
   id="path14"
   inkscape:connector-curvature="0" />
		<path
   d="m 684,438.5 v -47.2 h 20.3 v 7.1 h -13.1 v 12.9 h 9.6 v 7.1 h -9.6 v 12.9 h 13.1 v 7.1 H 684 Z"
   id="path16"
   inkscape:connector-curvature="0" />
		<path
   d="m 718.2,427.7 -1.7,10.8 h -7.4 l 8,-47.2 h 9.8 l 7.9,47.2 h -7.5 l -1.7,-10.8 z m 3.8,-25.6 -2.6,18.6 h 5.3 z"
   id="path18"
   inkscape:connector-curvature="0" />
		<path
   d="m 763.2,427.2 c 0,3.1 -1.1,5.8 -3.3,8 -2.2,2.2 -4.8,3.3 -7.9,3.3 H 740.8 V 391.3 H 752 c 3.1,0 5.7,1.1 7.9,3.3 2.2,2.2 3.3,4.9 3.3,7.9 z m -15.3,4.3 h 4.3 c 1.1,0 2.1,-0.4 2.9,-1.2 0.8,-0.8 1.2,-1.8 1.2,-2.9 v -24.7 c 0,-1.1 -0.4,-2.1 -1.2,-2.9 -0.8,-0.8 -1.7,-1.2 -2.8,-1.2 H 748 v 32.9 z"
   id="path20"
   inkscape:connector-curvature="0" />
		<path
   d="m 768.1,411.4 h 21.1 v 7.2 h -21.1 z"
   id="path22"
   inkscape:connector-curvature="0" />
		<path
   class="st0"
   d="m 514.4,491.2 -1.7,10.8 h -7.4 l 8,-47.2 h 9.8 L 531,502 h -7.5 l -1.7,-10.8 z m 3.7,-25.5 -2.6,18.6 h 5.3 z"
   id="path24"
   inkscape:connector-curvature="0"
   style="fill:#58cadd" />
		<path
   class="st0"
   d="m 547.1,502.7 c -3.1,0 -5.8,-1.1 -8,-3.3 -2.2,-2.2 -3.3,-4.8 -3.3,-7.9 v -36.6 h 7 v 36.5 c 0,1.1 0.4,2.1 1.2,2.9 0.8,0.8 1.8,1.2 2.9,1.2 1.1,0 2.1,-0.4 2.9,-1.2 0.8,-0.8 1.2,-1.8 1.2,-2.9 v -36.5 h 7.4 v 36.6 c 0,3.2 -1.1,5.8 -3.3,8 -2.2,2.1 -4.9,3.2 -8,3.2 z"
   id="path26"
   inkscape:connector-curvature="0"
   style="fill:#58cadd" />
		<path
   class="st0"
   d="M 571.6,462 H 564 v -7.1 h 22.2 v 7.1 h -7.5 v 40.1 h -7.1 z"
   id="path28"
   inkscape:connector-curvature="0"
   style="fill:#58cadd" />
		<path
   class="st0"
   d="m 602.4,454.3 c 3.1,0 5.8,1.1 8,3.3 2.2,2.2 3.3,4.9 3.3,8 v 25.7 c 0,3.1 -1.1,5.8 -3.3,8 -2.2,2.2 -4.9,3.3 -8,3.3 -3.1,0 -5.8,-1.1 -8,-3.3 -2.2,-2.2 -3.3,-4.9 -3.3,-8 v -25.7 c 0,-3.1 1.1,-5.8 3.3,-8 2.2,-2.2 4.9,-3.3 8,-3.3 z m 3.9,11.2 c 0,-1.1 -0.4,-2.1 -1.2,-2.9 -0.8,-0.8 -1.7,-1.2 -2.9,-1.2 -1.1,0 -2.1,0.4 -2.9,1.2 -0.8,0.8 -1.2,1.7 -1.2,2.9 v 25.8 c 0,1.1 0.4,2.1 1.2,2.9 0.8,0.8 1.8,1.2 2.9,1.2 1.1,0 2.1,-0.4 2.9,-1.2 0.8,-0.8 1.2,-1.7 1.2,-2.9 z"
   id="path30"
   inkscape:connector-curvature="0"
   style="fill:#58cadd" />
		<path
   class="st0"
   d="m 627,502.1 h -7.1 v -47.2 h 10.2 l 6.6,33.8 6.4,-33.8 h 9.8 v 47.2 h -7.1 v -29.7 l -6.1,29.7 H 634 l -6.9,-29.6 v 29.6 z"
   id="path32"
   inkscape:connector-curvature="0"
   style="fill:#58cadd" />
		<path
   class="st0"
   d="m 668,491.2 -1.7,10.8 h -7.4 l 8,-47.2 h 9.8 l 7.9,47.2 h -7.5 l -1.7,-10.8 z m 3.8,-25.5 -2.6,18.6 h 5.3 z"
   id="path34"
   inkscape:connector-curvature="0"
   style="fill:#58cadd" />
		<path
   class="st0"
   d="m 691.5,462 h -7.6 v -7.1 h 22.2 v 7.1 h -7.5 v 40.1 h -7.1 z"
   id="path36"
   inkscape:connector-curvature="0"
   style="fill:#58cadd" />
		<path
   class="st0"
   d="m 719,502.1 h -7.1 v -47.2 h 7.1 z"
   id="path38"
   inkscape:connector-curvature="0"
   style="fill:#58cadd" />
		<path
   class="st0"
   d="m 736.5,454.3 c 3.1,0 5.8,1.1 8,3.3 2.2,2.2 3.3,4.9 3.3,8 v 25.7 c 0,3.1 -1.1,5.8 -3.3,8 -2.2,2.2 -4.9,3.3 -8,3.3 -3.1,0 -5.8,-1.1 -8,-3.3 -2.2,-2.2 -3.3,-4.9 -3.3,-8 v -25.7 c 0,-3.1 1.1,-5.8 3.3,-8 2.2,-2.2 4.9,-3.3 8,-3.3 z m 3.9,11.2 c 0,-1.1 -0.4,-2.1 -1.2,-2.9 -0.8,-0.8 -1.7,-1.2 -2.9,-1.2 -1.1,0 -2.1,0.4 -2.9,1.2 -0.8,0.8 -1.2,1.7 -1.2,2.9 v 25.8 c 0,1.1 0.4,2.1 1.2,2.9 0.8,0.8 1.8,1.2 2.9,1.2 1.1,0 2.1,-0.4 2.9,-1.2 0.8,-0.8 1.2,-1.7 1.2,-2.9 z"
   id="path40"
   inkscape:connector-curvature="0"
   style="fill:#58cadd" />
		<path
   class="st0"
   d="m 762,454.9 9.4,31.7 v -31.7 h 7.1 v 47.2 h -7.6 l -9.8,-30.2 v 30.2 H 754 v -47.2 z"
   id="path42"
   inkscape:connector-curvature="0"
   style="fill:#58cadd" />
	</g>
	<g
   id="g332">
		<g
   id="g286">
			<g
   id="g78">
				<g
   id="g50">
					<path
   class="st1"
   d="m 408.4,425.5 c 0,0 -0.3,0.4 -0.9,0.5 -0.5,0.1 -1.3,0 -2.2,-0.7 -0.6,-8.8 -1.4,-17.3 -1.4,-17.3 l 3.5,0.1 1.9,0.1 z"
   id="path46"
   inkscape:connector-curvature="0"
   style="fill:#9c9b97" />
					<path
   class="st2"
   d="m 408.4,425.5 c 0,0 -0.3,0.4 -0.9,0.5 l -0.1,-17.8 1.9,0.1 z"
   id="path48"
   inkscape:connector-curvature="0"
   style="fill:#70706d" />
				</g>
				<g
   id="g56">
					<path
   class="st3"
   d="m 436.6,394.6 c -4,3.6 -10.1,3.3 -13.6,-0.7 -3.5,-4 -3.1,-10.1 0.8,-13.7 4,-3.6 10.1,-3.3 13.6,0.7 3.6,4 3.2,10.1 -0.8,13.7 z"
   id="path52"
   inkscape:connector-curvature="0"
   style="fill:#ffffff" />
					<path
   class="st4"
   d="m 424.7,392.5 c -3.3,-3.7 -3.2,-9.2 0.1,-12.9 -0.3,0.2 -0.6,0.4 -0.9,0.7 -4,3.6 -4.4,9.7 -0.8,13.7 3.5,4 9.6,4.3 13.6,0.7 0.3,-0.3 0.5,-0.5 0.8,-0.8 -4.1,2.8 -9.5,2.3 -12.8,-1.4 z"
   id="path54"
   inkscape:connector-curvature="0"
   style="opacity:0.5;fill:#70706d" />
				</g>
				<g
   id="g62">
					<path
   class="st0"
   d="m 409.8,410.1 c -2.1,1.9 -5.3,1.7 -7.1,-0.3 -1.8,-2.1 -1.6,-5.3 0.4,-7.2 2.1,-1.9 5.3,-1.7 7.1,0.3 1.9,2.1 1.7,5.3 -0.4,7.2 z"
   id="path58"
   inkscape:connector-curvature="0"
   style="fill:#58cadd" />
					<path
   class="st4"
   d="m 411.5,406.1 c -0.2,1.1 -0.7,2.2 -1.6,3.1 -2.1,1.9 -5.3,1.7 -7.1,-0.3 -0.8,-0.9 -1.2,-2.1 -1.3,-3.2 -0.2,1.4 0.2,2.9 1.2,4.1 1.8,2.1 5,2.2 7.1,0.3 1.2,-1.1 1.8,-2.5 1.7,-4 z"
   id="path60"
   inkscape:connector-curvature="0"
   style="opacity:0.5;fill:#70706d" />
				</g>
				<g
   id="g68">
					<path
   class="st1"
   d="m 425.8,397.2 -14.7,8.2 c 0,0 -0.7,-0.1 -1.5,-0.5 -0.9,-0.4 -1.8,-1.3 -1.7,-2.7 3.5,-3.8 13.3,-14.9 13.3,-14.9 0,0 3.9,1.9 5.1,5.2 0.5,1.3 0.4,2.9 -0.5,4.7 z"
   id="path64"
   inkscape:connector-curvature="0"
   style="fill:#9c9b97" />
					<path
   class="st2"
   d="m 425.8,397.2 -14.7,8.2 c 0,0 -0.7,-0.1 -1.5,-0.5 l 16.6,-12.4 c 0.6,1.3 0.5,2.9 -0.4,4.7 z"
   id="path66"
   inkscape:connector-curvature="0"
   style="fill:#70706d" />
				</g>
				<g
   id="g76">
					<polygon
   class="st3"
   points="414.9,429.1 414,429.9 410.4,430.5 411.4,434.9 417.4,438.4 416.7,440 404.8,437.2 403.4,430 405.2,425.1 408.2,424.2 415.7,426.9 415.9,427.6 "
   id="polygon70"
   style="fill:#ffffff" />
					<polygon
   class="st5"
   points="414,429.9 410.4,430.5 409.5,428.6 414.4,429.1 415.1,428.4 415.9,427.6 414.5,429.9 "
   id="polygon72"
   style="fill:#b5b5b4" />
					<polygon
   class="st5"
   points="404.8,437.2 403.4,430 405.2,425.1 408.2,424.2 405.9,425.9 404.7,430.2 405.9,436.1 416.4,439.5 417.4,438.4 416.7,440 "
   id="polygon74"
   style="fill:#b5b5b4" />
				</g>
			</g>
			<g
   id="g98">
				<g
   id="g84">
					
						<rect
   x="454.70001"
   y="376.5"
   transform="matrix(0.2318,-0.9728,0.9728,0.2318,-14.1868,741.6238)"
   class="st1"
   width="15.6"
   height="6.5999999"
   id="rect80"
   style="fill:#9c9b97" />
					
						<rect
   x="457"
   y="379.39999"
   transform="matrix(0.2314,-0.9728,0.9728,0.2314,-12.8137,744.4784)"
   class="st2"
   width="15.6"
   height="1.9"
   id="rect82"
   style="fill:#70706d" />
				</g>
				<g
   id="g90">
					
						<rect
   x="448.39999"
   y="375.20001"
   transform="matrix(0.5859,-0.8104,0.8104,0.5859,-116.0116,525.5125)"
   class="st1"
   width="15.6"
   height="2.0999999"
   id="rect86"
   style="fill:#9c9b97" />
					
						<rect
   x="449"
   y="376.39999"
   transform="matrix(0.5866,-0.8099,0.8099,0.5866,-116.2458,525.7068)"
   class="st2"
   width="15.6"
   height="0.60000002"
   id="rect88"
   style="fill:#70706d" />
				</g>
				<g
   id="g96">
					
						<rect
   x="469.10001"
   y="371.79999"
   transform="matrix(0.9876,-0.1571,0.1571,0.9876,-53.7966,78.5744)"
   class="st1"
   width="2.0999999"
   height="15.6"
   id="rect92"
   style="fill:#9c9b97" />
					
						<rect
   x="469.10001"
   y="371.89999"
   transform="matrix(0.9875,-0.1578,0.1578,0.9875,-54.0342,78.8215)"
   class="st2"
   width="0.60000002"
   height="15.6"
   id="rect94"
   style="fill:#70706d" />
				</g>
			</g>
			<g
   id="g104">
				<path
   class="st1"
   d="m 448.5,443.1 c -6.5,10.4 -12,26 -12,26 l -2.6,-1.3 -4.2,-2.1 c 0,0 3.4,-24.7 5.9,-30.2 1.1,-2.4 5,-3.3 8.5,-2.5 4.4,0.9 8,4.3 4.4,10.1 z"
   id="path100"
   inkscape:connector-curvature="0"
   style="fill:#9c9b97" />
				<path
   class="st2"
   d="m 448.6,443.1 c -5.8,10.5 -11.1,26.2 -11.1,26.2 l -3.1,-1.3 c 3.2,-18.1 8.3,-29.3 10.6,-34.9 3.8,0.9 6.9,4.1 3.6,10 z"
   id="path102"
   inkscape:connector-curvature="0"
   style="fill:#70706d" />
			</g>
			<path
   class="st6"
   d="m 437,471.1 c -0.6,1.9 -2.6,2.9 -4.4,2.3 l -2.4,-0.8 c -1.9,-0.6 -2.9,-2.6 -2.3,-4.4 l 0.5,-1.7 c 0.6,-1.9 2.6,-2.9 4.4,-2.3 l 2.4,0.7 c 1.9,0.6 2.9,2.6 2.3,4.4 z"
   id="path106"
   inkscape:connector-curvature="0"
   style="fill:#a5a5a5" />
			<path
   class="st5"
   d="m 435.5,465 c 0.9,0.9 1.3,2.2 0.9,3.5 l -0.5,1.7 c -0.6,1.9 -2.6,2.9 -4.4,2.3 l -2.4,-0.8 c -0.1,0 -0.3,-0.1 -0.4,-0.2 0.4,0.4 0.9,0.7 1.5,0.9 l 2.4,0.8 c 1.9,0.6 3.9,-0.5 4.4,-2.3 l 0.5,-1.7 c 0.5,-1.6 -0.3,-3.4 -2,-4.2 z"
   id="path108"
   inkscape:connector-curvature="0"
   style="fill:#b5b5b4" />
			<g
   id="g120">
				<g
   id="g118">
					<g
   id="g116">
						<path
   class="st3"
   d="m 421.5,508.8 c 7.7,2.1 11.1,-0.3 12.5,-4.3 2,-5.5 0.5,-14 1.2,-18.4 1.3,-7.6 8.3,-15.1 -2.5,-18.2 -10.8,-3 -10.7,11.1 -11.6,16 -1,5.7 -2,7.2 -4.1,10.1 -0.9,1.2 -2.6,2.7 -4,4.3 0,0 0,0 0,0 -2.7,3.3 -3.6,7.1 8.5,10.5 z"
   id="path110"
   inkscape:connector-curvature="0"
   style="fill:#ffffff" />
						<path
   class="st0"
   d="m 421.5,508.8 c 7.7,2.1 11.1,-0.3 12.5,-4.3 v 0 c 0,0 0.6,-4.4 -5.5,-5 -5,-0.4 -11,-4.4 -15.5,-1.1 0,0 0,0 0,0 -2.7,3.2 -3.6,7 8.5,10.4 z"
   id="path112"
   inkscape:connector-curvature="0"
   style="fill:#58cadd" />
						<path
   class="st5"
   d="m 431.7,504.2 c 2,-5.7 0.5,-14.6 1.3,-19.2 1,-6.1 5.4,-12.2 2.5,-16.1 6.8,3.5 1,10.3 -0.2,17.1 -0.7,4.3 0.8,12.9 -1.2,18.4 -1.2,3.3 -3.7,5.6 -8.8,5.1 3.5,-0.3 5.4,-2.4 6.4,-5.3 z"
   id="path114"
   inkscape:connector-curvature="0"
   style="fill:#b5b5b4" />
					</g>
				</g>
			</g>
			<g
   id="g126">
				<path
   class="st2"
   d="m 440.5,391.3 36.9,12.8 c 0,0 -7.2,9.9 -7.2,21.2 0,9.4 -14.5,7.9 -14.5,7.9 0,0 -13.7,-3.1 -14.5,-7.5 -4.8,-25 -0.7,-34.4 -0.7,-34.4 z"
   id="path122"
   inkscape:connector-curvature="0"
   style="fill:#70706d" />
				<path
   class="st1"
   d="m 448.2,395.7 23.3,8.4 c 0,0 -5.3,9.9 -5.3,21.2 0,9.4 -10.7,7.9 -10.7,7.9 0,0 -9.8,-3.1 -10.7,-7.5 -3,-17.2 3.4,-30 3.4,-30 z"
   id="path124"
   inkscape:connector-curvature="0"
   style="fill:#9c9b97" />
			</g>
			<g
   id="g160">
				<g
   id="g132">
					<path
   class="st1"
   d="m 477.6,442.5 c 0,0 -0.1,0.5 0.3,1 0.3,0.5 0.9,0.9 2,1 6.6,-5.7 13,-11.1 13,-11.1 l -2.6,-2.3 -1.4,-1.3 z"
   id="path128"
   inkscape:connector-curvature="0"
   style="fill:#9c9b97" />
					<path
   class="st2"
   d="m 477.6,442.5 c 0,0 -0.1,0.5 0.3,1 l 12.5,-12.4 -1.4,-1.3 z"
   id="path130"
   inkscape:connector-curvature="0"
   style="fill:#70706d" />
				</g>
				<g
   id="g138">
					<path
   class="st3"
   d="m 479.1,401.3 c 0.3,5.3 4.9,9.3 10.2,9 5.3,-0.3 9.3,-4.9 9,-10.2 -0.3,-5.3 -4.9,-9.3 -10.2,-9 -5.4,0.4 -9.4,5 -9,10.2 z"
   id="path134"
   inkscape:connector-curvature="0"
   style="fill:#ffffff" />
					<path
   class="st4"
   d="m 489.1,408.1 c 4.9,-0.3 8.7,-4.3 9,-9.1 0.1,0.4 0.1,0.7 0.1,1.1 0.3,5.3 -3.7,9.8 -9,10.2 -5.3,0.3 -9.8,-3.7 -10.2,-9 0,-0.4 0,-0.7 0,-1.1 0.9,4.8 5.2,8.2 10.1,7.9 z"
   id="path136"
   inkscape:connector-curvature="0"
   style="opacity:0.5;fill:#70706d" />
				</g>
				<g
   id="g144">
					<path
   class="st0"
   d="m 487.4,430.7 c 0.2,2.8 2.6,4.9 5.3,4.7 2.8,-0.2 4.9,-2.6 4.7,-5.3 -0.2,-2.8 -2.6,-4.9 -5.3,-4.7 -2.8,0.2 -4.9,2.6 -4.7,5.3 z"
   id="path140"
   inkscape:connector-curvature="0"
   style="fill:#58cadd" />
					<path
   class="st4"
   d="m 489,426.8 c -0.7,0.9 -1,2.1 -1,3.3 0.2,2.8 2.6,4.9 5.3,4.7 1.2,-0.1 2.3,-0.6 3.1,-1.4 -0.8,1.2 -2.2,1.9 -3.7,2 -2.8,0.2 -5.1,-1.9 -5.3,-4.7 -0.1,-1.5 0.5,-2.9 1.6,-3.9 z"
   id="path142"
   inkscape:connector-curvature="0"
   style="opacity:0.5;fill:#70706d" />
				</g>
				<g
   id="g150">
					<path
   class="st1"
   d="m 485,410.6 4.8,15.9 c 0,0 0.6,0.4 1.4,0.7 0.9,0.3 2.2,0.4 3.1,-0.7 0.2,-5.1 0.9,-19.6 0.9,-19.6 0,0 -4.1,-1.4 -7.2,0.1 -1.3,0.6 -2.4,1.7 -3,3.6 z"
   id="path146"
   inkscape:connector-curvature="0"
   style="fill:#9c9b97" />
					<path
   class="st2"
   d="m 485,410.6 4.8,15.9 c 0,0 0.6,0.4 1.4,0.7 L 488,407 c -1.3,0.6 -2.4,1.7 -3,3.6 z"
   id="path148"
   inkscape:connector-curvature="0"
   style="fill:#70706d" />
				</g>
				<g
   id="g158">
					<polygon
   class="st3"
   points="470.5,440.5 470.6,441.7 472.7,444.7 468.9,447 462.2,445.3 461.7,446.9 472.1,453.2 478.1,449.2 480.2,444.5 478.8,441.7 471.5,438.5 470.9,438.8 "
   id="polygon152"
   style="fill:#ffffff" />
					<polygon
   class="st5"
   points="470.6,441.7 472.7,444.7 474.7,443.9 470.9,440.9 470.9,440 470.9,438.8 470.3,441.4 "
   id="polygon154"
   style="fill:#b5b5b4" />
					<polygon
   class="st5"
   points="472.1,453.2 478.1,449.2 480.2,444.5 478.8,441.7 479.2,444.5 477.1,448.4 472.1,451.7 462.2,446.8 462.2,445.3 461.7,446.9 "
   id="polygon156"
   style="fill:#b5b5b4" />
				</g>
			</g>
			<g
   id="g166">
				<path
   class="st1"
   d="m 457.2,443.7 c 6.4,10.5 11.8,26.1 11.8,26.1 l 2.6,-1.2 4.2,-2 c 0,0 -3.3,-24.8 -5.6,-30.2 -1.1,-2.4 -5,-3.3 -8.5,-2.6 -4.4,0.8 -8,4.1 -4.5,9.9 z"
   id="path162"
   inkscape:connector-curvature="0"
   style="fill:#9c9b97" />
				<path
   class="st2"
   d="M 457.1,443.7 C 462.8,454.3 468,470 468,470 l 3.1,-1.2 c -3.1,-18.1 -8.1,-29.4 -10.3,-35 -3.8,0.8 -6.9,4 -3.7,9.9 z"
   id="path164"
   inkscape:connector-curvature="0"
   style="fill:#70706d" />
			</g>
			<path
   class="st6"
   d="m 468.2,470.9 c 0.1,2 1.7,3.5 3.6,3.5 l 2.5,-0.1 c 2,-0.1 3.5,-1.7 3.5,-3.7 v -1.8 c -0.1,-2 -1.7,-3.5 -3.6,-3.5 l -2.5,0.1 c -2,0.1 -3.5,1.7 -3.5,3.7 z"
   id="path168"
   inkscape:connector-curvature="0"
   style="fill:#a5a5a5" />
			<path
   class="st5"
   d="m 471.2,465.4 c -1.1,0.6 -1.8,1.8 -1.8,3.2 v 1.8 c 0.1,2 1.7,3.5 3.7,3.5 l 2.5,-0.1 c 0.1,0 0.3,0 0.4,0 -0.5,0.3 -1.1,0.5 -1.7,0.5 l -2.5,0.1 c -2,0.1 -3.6,-1.5 -3.7,-3.5 v -1.8 c 0,-1.9 1.4,-3.4 3.1,-3.7 z"
   id="path170"
   inkscape:connector-curvature="0"
   style="fill:#b5b5b4" />
			<g
   id="g182">
				<g
   id="g180">
					<g
   id="g178">
						<path
   class="st3"
   d="m 473,511.4 c -8,0 -10.6,-3.2 -10.9,-7.5 -0.4,-5.8 3.3,-13.6 3.8,-18 0.8,-7.6 -4,-16.8 7.3,-16.8 11.2,0 7.4,13.6 6.9,18.6 -0.5,5.8 -0.1,7.5 1.2,10.9 0.5,1.4 1.8,3.3 2.7,5.2 0,0 0,0 0,0 1.7,3.7 1.6,7.5 -11,7.6 z"
   id="path172"
   inkscape:connector-curvature="0"
   style="fill:#ffffff" />
						<path
   class="st0"
   d="m 473,511.4 c -8,0 -10.6,-3.2 -10.9,-7.5 v 0 c 0,0 0.6,-4.4 6.7,-3.3 5,0.9 11.8,-1.3 15.2,3.1 0,0 0,0 0,0 1.7,3.8 1.6,7.6 -11,7.7 z"
   id="path174"
   inkscape:connector-curvature="0"
   style="fill:#58cadd" />
						<path
   class="st5"
   d="m 464.4,504.2 c -0.4,-6.1 3.4,-14.2 3.9,-18.8 0.7,-6.1 -2,-13.2 1.9,-16.1 -7.5,1.6 -3.7,9.7 -4.4,16.6 -0.5,4.4 -4.2,12.2 -3.8,18 0.3,3.5 2.1,6.4 7.1,7.2 -3.2,-1.3 -4.5,-3.9 -4.7,-6.9 z"
   id="path176"
   inkscape:connector-curvature="0"
   style="fill:#b5b5b4" />
					</g>
				</g>
			</g>
			<g
   id="g204">
				<g
   id="g196">
					<path
   class="st3"
   d="m 470.8,423.8 -33.3,-1.6 c -1.9,-0.1 -3.5,1.4 -3.6,3.4 l -0.5,10.4 c -0.1,2 1.4,3.6 3.3,3.7 l 12.8,0.6 c 1.5,-0.8 3.1,-2.1 3.7,-3.8 0.4,1.8 1.8,3.2 3.3,4.2 l 13.6,0.6 c 1.9,0.1 3.5,-1.4 3.6,-3.4 l 0.5,-10.4 c 0,-2 -1.5,-3.6 -3.4,-3.7 z"
   id="path184"
   inkscape:connector-curvature="0"
   style="fill:#ffffff" />
					<path
   class="st7"
   d="m 436.6,439.7 12.8,0.6 c 0.6,-0.3 1.2,-0.7 1.8,-1.2 -5.5,0.2 -11.4,-0.4 -16.8,-0.4 0.6,0.6 1.4,1 2.2,1 z"
   id="path186"
   inkscape:connector-curvature="0"
   style="fill:#e5e5e5" />
					<path
   class="st7"
   d="m 471,423.8 c -1.3,11 -8.2,14.3 -16.7,15.1 0.6,0.7 1.3,1.3 2,1.7 l 13.6,0.6 c 1.9,0.1 3.5,-1.4 3.6,-3.4 l 0.5,-10.4 c 0.2,-1.8 -1.2,-3.4 -3,-3.6 z"
   id="path188"
   inkscape:connector-curvature="0"
   style="fill:#e5e5e5" />
					<g
   class="st8"
   id="g194"
   style="opacity:0.5">
						<path
   class="st2"
   d="m 453.1,435.5 c -0.6,1.7 -2.7,3.5 -4.2,4.3 l -12.4,-0.6 c -1.9,-0.1 -3.3,-1.7 -3.2,-3.6 v 0.4 c -0.1,2 1.4,3.6 3.3,3.7 l 12.8,0.6 c 1.3,-0.7 2.7,-1.8 3.5,-3.3 0.3,-0.6 0.3,-1.1 0.2,-1.5 z"
   id="path190"
   inkscape:connector-curvature="0"
   style="fill:#70706d" />
						<path
   class="st2"
   d="m 470.8,423.8 -1.1,-0.1 c 1.9,0.1 3.3,1.7 3.2,3.6 l -0.5,10.1 c -0.1,1.9 -1.7,3.4 -3.5,3.3 l -13.2,-0.6 c -0.2,-0.2 -0.5,-0.3 -0.7,-0.5 0.4,0.4 0.9,0.7 1.3,1 l 13.6,0.6 c 1.9,0.1 3.5,-1.4 3.6,-3.4 l 0.5,-10.4 c 0.2,-1.9 -1.3,-3.5 -3.2,-3.6 z"
   id="path192"
   inkscape:connector-curvature="0"
   style="fill:#70706d" />
					</g>
				</g>
				<g
   id="g202">
					<path
   class="st0"
   d="m 469.7,427.4 c 0,0.9 -0.8,1.6 -1.7,1.5 l -28.7,-1.4 c -0.9,0 -1.6,-0.8 -1.5,-1.7 v 0 c 0,-0.9 0.8,-1.6 1.7,-1.5 l 28.7,1.4 c 0.8,0.1 1.5,0.8 1.5,1.7 z"
   id="path198"
   inkscape:connector-curvature="0"
   style="fill:#58cadd" />
					<path
   class="st4"
   d="m 468,428.7 -28.7,-1.4 c -0.8,0 -1.5,-0.7 -1.5,-1.6 0,0 0,0.1 0,0.1 0,0.9 0.6,1.7 1.5,1.7 L 468,429 c 0.9,0 1.7,-0.6 1.7,-1.5 0,-0.1 0,-0.1 0,-0.1 -0.1,0.7 -0.9,1.3 -1.7,1.3 z"
   id="path200"
   inkscape:connector-curvature="0"
   style="opacity:0.5;fill:#70706d" />
				</g>
			</g>
			<g
   id="g212">
				<path
   class="st3"
   d="m 473.3,439.2 c 0,0 -0.6,1.2 -1.7,1.8 0.1,0.5 0.6,2.8 0.6,2.8 l 0.6,0.8 -3.8,2.3 -6.7,-1.7 -0.6,1.7 10.5,6.3 6,-4 2.1,-4.7 -1.4,-2.7 z"
   id="path206"
   inkscape:connector-curvature="0"
   style="fill:#ffffff" />
				<polygon
   class="st5"
   points="474.8,443.9 471.7,441.5 472.1,443.8 472.7,444.7 "
   id="polygon208"
   style="fill:#b5b5b4" />
				<polygon
   class="st5"
   points="472.1,453.2 478.1,449.2 480.2,444.5 478.8,441.8 479.2,444.5 477.1,448.4 472,451.7 462.2,446.8 462.2,445.2 461.7,446.9 "
   id="polygon210"
   style="fill:#b5b5b4" />
			</g>
			<path
   class="st3"
   d="m 476.6,379.1 c -3.5,-0.8 -6.6,5 -14.6,3 -8.8,-2.1 -8.3,-8.5 -11.8,-9.3 -4.7,-1.2 -16.8,-0.1 -18.3,4.6 -3.2,9.7 -1.8,27.4 23.3,33.4 25.9,6.2 34.3,-9.2 35.8,-19.3 0.7,-4.9 -9.6,-11.3 -14.4,-12.4 z"
   id="path214"
   inkscape:connector-curvature="0"
   style="fill:#ffffff" />
			<path
   class="st7"
   d="m 491,391.5 c 0.4,-2.4 -1.9,-5.1 -4.9,-7.4 0.9,19.8 -19.8,26.1 -36.4,25.1 1.7,0.6 3.5,1.1 5.4,1.6 25.9,6.2 34.3,-9.2 35.9,-19.3 z"
   id="path216"
   inkscape:connector-curvature="0"
   style="fill:#e5e5e5" />
			<path
   class="st4"
   d="m 455.4,409.7 c -23.1,-5.5 -26.1,-21 -23.9,-31 -2.6,10 -0.3,26.4 23.7,32.1 24.5,5.8 33.3,-7.6 35.5,-17.7 -2.6,9.9 -11.6,22.3 -35.3,16.6 z"
   id="path218"
   inkscape:connector-curvature="0"
   style="opacity:0.5;fill:#70706d" />
			<g
   id="g224">
				<path
   class="st0"
   d="m 449.8,388.1 -1.7,-0.5 c 0,0 -5,-5.6 -5.3,-8 -0.2,-1.9 -0.2,-4.1 -0.7,-5 -0.6,-1.2 -1.3,-1.9 -1.3,-1.9 h 0.2 0.2 c 0,0 1.5,1.2 1.6,5.4 0.1,4.3 5.9,9 5.9,9 l 0.6,0.6 z"
   id="path220"
   inkscape:connector-curvature="0"
   style="fill:#58cadd" />
				<path
   class="st4"
   d="m 449.4,387.7 c 0,0 -0.1,0.2 -0.2,0.3 -0.8,-0.3 -2.8,-2.7 -4.2,-4.5 -0.5,-0.7 -1,-1.5 -1.2,-1.8 -0.7,-1.2 -1,-1.9 -1.1,-4.5 -0.1,-0.8 -0.2,-1.8 -0.6,-2.7 -0.3,-0.7 -0.8,-1.4 -1.1,-1.7 h 0.2 c 0,0 1.5,1.2 1.6,5.4 0.1,4.3 5.9,9 5.9,9 z"
   id="path222"
   inkscape:connector-curvature="0"
   style="opacity:0.5;fill:#70706d" />
			</g>
			<g
   id="g230">
				<path
   class="st0"
   d="m 470.1,393 1.7,0.3 c 0,0 7,-2.8 8.3,-4.7 1.1,-1.6 2,-3.6 2.9,-4.1 1,-0.8 2,-1.1 2,-1.1 l -0.2,-0.1 -0.2,-0.1 c 0,0 -1.9,0.3 -3.9,4.1 -2,3.8 -9.3,5.4 -9.3,5.4 l -0.8,0.2 z"
   id="path226"
   inkscape:connector-curvature="0"
   style="fill:#58cadd" />
				<path
   class="st4"
   d="m 470.7,392.8 c 0,0.1 0,0.3 0,0.3 0.8,0.1 3.8,-1.2 5.8,-2.1 0.8,-0.4 1.5,-0.9 1.8,-1.1 1.2,-0.7 1.7,-1.2 3,-3.5 0.5,-0.7 1,-1.5 1.7,-2.2 0.6,-0.5 1.4,-0.9 1.8,-1.1 l -0.2,-0.1 c 0,0 -1.9,0.3 -3.9,4.1 -2,3.8 -9.3,5.4 -9.3,5.4 z"
   id="path228"
   inkscape:connector-curvature="0"
   style="opacity:0.5;fill:#70706d" />
			</g>
			<g
   id="g278">
				<path
   class="st0"
   d="m 490.2,378.1 -50,-10.7 c -3.4,-0.7 -5.6,-4.1 -4.9,-7.5 l 4.3,-20 c 0.7,-3.4 4.1,-5.6 7.5,-4.9 l 50,10.7 c 3.4,0.7 5.6,4.1 4.9,7.5 l -4.3,20 c -0.7,3.4 -4,5.6 -7.5,4.9 z"
   id="path232"
   inkscape:connector-curvature="0"
   style="fill:#58cadd" />
				<path
   class="st4"
   d="m 490.2,378.1 -50,-10.7 c -3.4,-0.7 -5.6,-4.1 -4.9,-7.5 l 4.3,-20 c 0.7,-3.4 4.1,-5.6 7.5,-4.9 l 50,10.7 c 3.4,0.7 5.6,4.1 4.9,7.5 l -4.3,20 c -0.7,3.4 -4,5.6 -7.5,4.9 z"
   id="path234"
   inkscape:connector-curvature="0"
   style="opacity:0.5;fill:#70706d" />
				<path
   class="st0"
   d="m 486.7,373.4 -41.3,-8.8 c -3.4,-0.7 -5.6,-4.1 -4.9,-7.5 l 2.7,-12.6 c 0.7,-3.4 4.1,-5.6 7.5,-4.9 l 41.3,8.8 c 3.4,0.7 5.6,4.1 4.9,7.5 l -2.7,12.6 c -0.8,3.5 -4.1,5.7 -7.5,4.9 z"
   id="path236"
   inkscape:connector-curvature="0"
   style="fill:#58cadd" />
				<g
   id="g250">
					<g
   id="g242">
						<path
   class="st7"
   d="m 448.6,343.1 c -0.1,0.6 -0.7,0.9 -1.2,0.8 -0.5,-0.1 -0.9,-0.7 -0.8,-1.2 0.1,-0.5 0.7,-0.9 1.2,-0.8 0.6,0.1 1,0.6 0.8,1.2 z"
   id="path238"
   inkscape:connector-curvature="0"
   style="fill:#e5e5e5" />
						<path
   class="st7"
   d="m 444.8,361.1 c -0.1,0.6 -0.7,0.9 -1.2,0.8 -0.5,-0.1 -0.9,-0.7 -0.8,-1.2 0.1,-0.6 0.7,-0.9 1.2,-0.8 0.5,0.1 0.9,0.7 0.8,1.2 z"
   id="path240"
   inkscape:connector-curvature="0"
   style="fill:#e5e5e5" />
					</g>
					<g
   id="g248">
						<path
   class="st7"
   d="m 494.6,352.9 c -0.1,0.6 -0.7,0.9 -1.2,0.8 -0.5,-0.1 -0.9,-0.7 -0.8,-1.2 0.1,-0.5 0.7,-0.9 1.2,-0.8 0.5,0.1 0.9,0.7 0.8,1.2 z"
   id="path244"
   inkscape:connector-curvature="0"
   style="fill:#e5e5e5" />
						<path
   class="st7"
   d="m 490.7,371 c -0.1,0.6 -0.7,0.9 -1.2,0.8 -0.5,-0.1 -0.9,-0.7 -0.8,-1.2 0.1,-0.6 0.7,-0.9 1.2,-0.8 0.6,0 0.9,0.6 0.8,1.2 z"
   id="path246"
   inkscape:connector-curvature="0"
   style="fill:#e5e5e5" />
					</g>
				</g>
				<g
   id="g276">
					<g
   id="g262">
						
							<circle
   transform="matrix(0.8357,-0.5492,0.5492,0.8357,-119.068,309.208)"
   class="st3"
   cx="457.29999"
   cy="353.60001"
   id="ellipse252"
   r="9.8000002"
   style="fill:#ffffff" />
						
							<circle
   transform="matrix(0.8368,-0.5474,0.5474,0.8368,-118.9747,308.0128)"
   class="st7"
   cx="457.29999"
   cy="353.60001"
   id="ellipse254"
   r="7"
   style="fill:#e5e5e5" />
						
							<circle
   transform="matrix(0.8371,-0.547,0.547,0.8371,-118.9531,307.7411)"
   class="st9"
   cx="457.29999"
   cy="353.60001"
   id="ellipse256"
   r="6.3000002"
   style="fill:#0f090d" />
						
							<circle
   transform="matrix(0.8604,-0.5096,0.5096,0.8604,-116.3669,282.3516)"
   class="st10"
   cx="457.29999"
   cy="353.60001"
   id="ellipse258"
   r="5.1999998"
   style="fill:#fcf4fb" />
						<path
   class="st9"
   d="m 460.4,354.3 c -0.4,1.7 -2.1,2.8 -3.8,2.5 -1.7,-0.4 -2.8,-2.1 -2.5,-3.8 0.4,-1.7 2.1,-2.8 3.8,-2.5 1.8,0.3 2.9,2 2.5,3.8 z"
   id="path260"
   inkscape:connector-curvature="0"
   style="fill:#0f090d" />
					</g>
					<g
   id="g274">
						
							<circle
   transform="matrix(0.4274,-0.904,0.904,0.4274,-49.6654,638.0947)"
   class="st3"
   cx="478.89999"
   cy="358.29999"
   id="ellipse264"
   r="9.8000002"
   style="fill:#ffffff" />
						
							<circle
   transform="matrix(0.4278,-0.9039,0.9039,0.4278,-49.7802,637.8776)"
   class="st7"
   cx="478.89999"
   cy="358.29999"
   id="ellipse266"
   r="7"
   style="fill:#e5e5e5" />
						
							<circle
   transform="matrix(0.3632,-0.9317,0.9317,0.3632,-28.8063,674.3681)"
   class="st9"
   cx="478.89999"
   cy="358.29999"
   id="ellipse268"
   r="6.3000002"
   style="fill:#0f090d" />
						
							<circle
   transform="matrix(0.3633,-0.9317,0.9317,0.3633,-28.8339,674.3237)"
   class="st10"
   cx="478.89999"
   cy="358.29999"
   id="ellipse270"
   r="5.1999998"
   style="fill:#fcf4fb" />
						<path
   class="st9"
   d="m 482.1,358.9 c -0.4,1.7 -2.1,2.8 -3.8,2.5 -1.7,-0.4 -2.8,-2.1 -2.5,-3.8 0.4,-1.7 2.1,-2.8 3.8,-2.5 1.7,0.4 2.8,2.1 2.5,3.8 z"
   id="path272"
   inkscape:connector-curvature="0"
   style="fill:#0f090d" />
					</g>
				</g>
			</g>
			<g
   id="g284">
				<circle
   class="st0"
   cx="458.79999"
   cy="395.70001"
   r="13.5"
   id="circle280"
   style="fill:#58cadd" />
				<circle
   class="st4"
   cx="458.79999"
   cy="395.70001"
   r="6.5"
   id="circle282"
   style="opacity:0.5;fill:#70706d" />
			</g>
		</g>
		<g
   id="g314">
			<g
   id="g296">
				<g
   id="g294">
					<path
   class="st11"
   d="m 479.4,445.7 c 0.7,0.2 1.2,0.9 1,1.7 l -1,3.9 c -0.2,0.7 -0.9,1.2 -1.7,1 l -82.8,-22.1 c -0.7,-0.2 -1.2,-0.9 -1,-1.7 l 1,-3.9 c 0.2,-0.7 0.9,-1.2 1.7,-1 z"
   id="path288"
   inkscape:connector-curvature="0"
   style="fill:#ff9d0b" />
					<g
   id="g292">
						<path
   class="st12"
   d="m 398.7,436.9 c -0.2,0.7 -0.9,1.2 -1.7,1 l -3.9,-1 c -0.7,-0.2 -1.2,-0.9 -1,-1.7 l 4.6,-17.1 c 0.2,-0.7 0.9,-1.2 1.7,-1 l 3.9,1 c 0.7,0.2 1.2,0.9 1,1.7 z"
   id="path290"
   inkscape:connector-curvature="0"
   style="fill:#546f7a" />
					</g>
				</g>
			</g>
			<g
   id="g308">
				<path
   class="st12"
   d="m 520.5,440 c 7,1.9 17.9,16.9 19.1,25.3 -5.8,6.6 -21.8,14.4 -29.1,12.4 -7.4,-2 -26.6,-7.1 -26.6,-7.1 l 1.7,-5.7 7,-26.1 1.4,-5.8 c -0.1,-0.1 19.4,5.1 26.5,7 z"
   id="path298"
   inkscape:connector-curvature="0"
   style="fill:#546f7a" />
				<g
   id="g306">
					<g
   id="g304">
						<g
   id="g302">
							<path
   class="st13"
   d="m 500.1,454.9 -12.5,2.1 -12.4,-3.3 c -1.2,-0.3 -1.9,-1.5 -1.5,-2.7 l 1.7,-6.2 c 0.3,-1.2 1.5,-1.9 2.7,-1.5 l 12.4,3.3 z"
   id="path300"
   inkscape:connector-curvature="0"
   style="fill:#374c54" />
						</g>
					</g>
				</g>
			</g>
			<path
   class="st14"
   d="m 492.5,438.8 -3.6,13.4 50.4,13.5 c 0.1,-0.1 0.2,-0.2 0.3,-0.3 -1.2,-8.4 -12,-23.4 -19.1,-25.3 -7,-1.9 -26.6,-7.1 -26.6,-7.1 z"
   id="path310"
   inkscape:connector-curvature="0"
   style="fill:#e4e3e5" />
			<path
   class="st12"
   d="m 475.3,444.8 -0.9,3.4 25.5,6.8 h 0.2 l -9.7,-8.4 -12.4,-3.3 c -1.2,-0.3 -2.4,0.3 -2.7,1.5 z"
   id="path312"
   inkscape:connector-curvature="0"
   style="fill:#546f7a" />
		</g>
		<g
   id="g322">
			<path
   class="st3"
   d="m 473.3,439.2 c 0,0 -0.6,1.2 -1.7,1.8 0.1,0.5 0.6,2.8 0.6,2.8 l 0.6,0.8 -3.8,2.3 -6.7,-1.7 -0.6,1.7 10.5,6.3 6,-4 2.1,-4.7 -1.4,-2.7 z"
   id="path316"
   inkscape:connector-curvature="0"
   style="fill:#ffffff" />
			<polygon
   class="st5"
   points="474.8,443.9 471.7,441.5 472.1,443.8 472.7,444.7 "
   id="polygon318"
   style="fill:#b5b5b4" />
			<polygon
   class="st5"
   points="472.1,453.2 478.1,449.2 480.2,444.5 478.8,441.8 479.2,444.5 477.1,448.4 472,451.7 462.2,446.8 462.2,445.2 461.7,446.9 "
   id="polygon320"
   style="fill:#b5b5b4" />
		</g>
		<g
   id="g330">
			<polygon
   class="st3"
   points="414.9,429.1 414,429.9 410.4,430.5 411.4,434.9 417.4,438.4 416.7,440 404.8,437.2 403.4,430 405.2,425.1 408.2,424.2 415.7,426.9 415.9,427.6 "
   id="polygon324"
   style="fill:#ffffff" />
			<polygon
   class="st5"
   points="414,429.9 410.4,430.5 409.5,428.6 414.4,429.1 415.1,428.4 415.9,427.6 414.5,429.9 "
   id="polygon326"
   style="fill:#b5b5b4" />
			<polygon
   class="st5"
   points="404.8,437.2 403.4,430 405.2,425.1 408.2,424.2 405.9,425.9 404.7,430.2 405.9,436.1 416.4,439.5 417.4,438.4 416.7,440 "
   id="polygon328"
   style="fill:#b5b5b4" />
		</g>
	</g>
</g>
</svg>